<svg id="Layer_1" data-name="Layer 1" xmlns="http://www.w3.org/2000/svg" xmlns:xlink="http://www.w3.org/1999/xlink" viewBox="0 0 173.92 70.21"><defs><style>.cls-1{fill:#e0e0e0;}.cls-2{fill:url(#Ignition_Greyscale);}.cls-3{fill:url(#Ignition_Greyscale-2);}.cls-4{fill:url(#Ignition_Greyscale-3);}.cls-5{fill:url(#linear-gradient);}.cls-6{fill:url(#linear-gradient-2);}.cls-7{fill:url(#linear-gradient-3);}</style><radialGradient id="Ignition_Greyscale" cx="6.05" cy="42.32" r="4.51" gradientUnits="userSpaceOnUse"><stop offset="0" stop-color="#e0e0e0"/><stop offset="1" stop-color="#666"/></radialGradient><radialGradient id="Ignition_Greyscale-2" cx="14.93" cy="57.23" r="4.51" xlink:href="#Ignition_Greyscale"/><radialGradient id="Ignition_Greyscale-3" cx="21.39" cy="41.6" r="47.79" xlink:href="#Ignition_Greyscale"/><linearGradient id="linear-gradient" x1="-3.37" y1="6.5" x2="20.11" y2="92.82" gradientUnits="userSpaceOnUse"><stop offset="0" stop-color="#ff6900"/><stop offset="1" stop-color="red"/></linearGradient><linearGradient id="linear-gradient-2" x1="1.11" y1="5.28" x2="24.6" y2="91.6" xlink:href="#linear-gradient"/><linearGradient id="linear-gradient-3" x1="14.94" y1="1.53" x2="38.43" y2="87.83" xlink:href="#linear-gradient"/></defs><title>Ignition</title><rect class="cls-1" x="58.69" y="31.12" width="2.88" height="25.28"/><path class="cls-1" d="M121.52,31.15,119,33.08v2.42h-4.08v2.56H119V50.69c0,2.82.61,5.71,5.1,5.71h2.28V53.84h-2.28c-2.11,0-2.54-.53-2.54-3.15V38.06h4.82V35.49h-4.82V31.15"/><path class="cls-1" d="M74.38,35.48c-5.31,0-9.64,4.69-9.64,10.45S69.06,56.4,74.38,56.4A9.28,9.28,0,0,0,81.45,53V56.4A7.22,7.22,0,0,1,79.6,61a7.08,7.08,0,0,1-5.23,1.83v2.56a9.53,9.53,0,0,0,7-2.59A9.73,9.73,0,0,0,84,56.39V35.47L80.64,38a9.16,9.16,0,0,0-6.26-2.52m0,18.34c-3.9,0-7.07-3.54-7.07-7.89s3.17-7.88,7.07-7.88,7.07,3.54,7.07,7.88S78.28,53.83,74.38,53.83Z"/><path class="cls-1" d="M144.79,35.52c-5.31,0-9.62,4.68-9.62,10.44s4.32,10.44,9.62,10.44,9.62-4.68,9.62-10.44-4.31-10.44-9.62-10.44m0,18.31c-3.89,0-7.06-3.53-7.06-7.87s3.17-7.87,7.06-7.87,7.05,3.53,7.05,7.87S148.68,53.83,144.79,53.83Z"/><rect class="cls-1" x="109.15" y="35.49" width="2.56" height="20.9"/><rect class="cls-1" x="109.15" y="28.79" width="2.56" height="2.14"/><rect class="cls-1" x="129.54" y="35.49" width="2.56" height="20.9"/><rect class="cls-1" x="129.54" y="28.79" width="2.56" height="2.14"/><path class="cls-1" d="M96.29,35.49a7.88,7.88,0,0,0-5.57,2v-2H88.15v9h0v12h2.56v-12c0-2.39.76-6.32,5.57-6.32s5.57,4,5.57,6.39V56.39h2.56V44.44c0-5.52-3.12-9-8.14-9"/><path class="cls-1" d="M165.76,35.49a7.88,7.88,0,0,0-5.57,2v-2h-2.56V56.4h2.56v-12c0-2.39.76-6.32,5.57-6.32s5.58,4,5.58,6.39V56.39h2.56V44.44c0-5.52-3.12-9-8.14-9"/><path class="cls-1" d="M129,61.5l-.81.62a4.46,4.46,0,0,0-1.61-1.33,4.74,4.74,0,0,0-2.07-.45,4.57,4.57,0,0,0-2.28.59,4.26,4.26,0,0,0-1.63,1.59,4.4,4.4,0,0,0-.58,2.24,4.21,4.21,0,0,0,1.29,3.14,4.48,4.48,0,0,0,3.26,1.26,4.58,4.58,0,0,0,3.62-1.7l.81.62A5.21,5.21,0,0,1,127,69.62a6,6,0,0,1-2.57.53,5.35,5.35,0,0,1-4.26-1.8,5.43,5.43,0,0,1-1.31-3.67,5.11,5.11,0,0,1,1.59-3.81,5.47,5.47,0,0,1,4-1.54,5.83,5.83,0,0,1,2.6.57A5.06,5.06,0,0,1,129,61.5"/><path class="cls-1" d="M134.88,59.59l4.8,10.3h-1.11l-1.62-3.39h-4.44l-1.6,3.39h-1.15l4.87-10.3h.25m-.13,2.19L133,65.51h3.52Z"/><path class="cls-1" d="M140.21,68l.88-.53q.93,1.7,2.13,1.7a2,2,0,0,0,1-.24,1.7,1.7,0,0,0,.69-.65,1.67,1.67,0,0,0,.24-.86,1.75,1.75,0,0,0-.35-1A8.4,8.4,0,0,0,143,64.73a9,9,0,0,1-1.6-1.41,2.57,2.57,0,0,1-.55-1.58,2.39,2.39,0,0,1,.32-1.23,2.3,2.3,0,0,1,.91-.87,2.62,2.62,0,0,1,1.27-.32,2.71,2.71,0,0,1,1.36.36A4.66,4.66,0,0,1,146.06,61l-.84.64a4,4,0,0,0-1-1,1.7,1.7,0,0,0-.89-.25,1.41,1.41,0,0,0-1,.38,1.24,1.24,0,0,0-.4.93,1.57,1.57,0,0,0,.14.65,2.41,2.41,0,0,0,.51.69q.2.2,1.33,1a7.48,7.48,0,0,1,1.83,1.76,2.83,2.83,0,0,1,.5,1.55,2.63,2.63,0,0,1-.85,1.95,2.86,2.86,0,0,1-2.07.83,3,3,0,0,1-1.7-.5A4.55,4.55,0,0,1,140.21,68"/><rect class="cls-1" x="148.64" y="59.59" width="1.03" height="10.3"/><polyline class="cls-1" points="152.56 69.89 152.56 59.59 152.78 59.59 159.63 67.49 159.63 59.59 160.65 59.59 160.65 69.89 160.42 69.89 153.62 62.09 153.62 69.89 152.56 69.89"/><path class="cls-1" d="M168.43,59.33a5.34,5.34,0,0,1,3.91,1.56,5.41,5.41,0,0,1-3.83,9.26,5.27,5.27,0,0,1-3.87-1.57,5.15,5.15,0,0,1-1.58-3.79,5.48,5.48,0,0,1,.72-2.75,5.3,5.3,0,0,1,4.64-2.7m0,1a4.4,4.4,0,0,0-3.77,2.2,4.45,4.45,0,0,0-.58,2.25,4.33,4.33,0,0,0,4.34,4.36,4.4,4.4,0,0,0,2.22-.58A4.17,4.17,0,0,0,172.29,67a4.48,4.48,0,0,0,.57-2.24,4.36,4.36,0,0,0-.57-2.22,4.25,4.25,0,0,0-1.61-1.59A4.36,4.36,0,0,0,168.48,60.33Z"/><ellipse class="cls-2" cx="6.23" cy="41.79" rx="2.52" ry="2.86"/><ellipse class="cls-3" cx="15.1" cy="56.7" rx="2.52" ry="2.86"/><path class="cls-4" d="M46,34.61c0-3.57-.57-5-4.1-7.07l-.06,0h0l-.14-.08C32.32,22,23.66,15.84,31,0c0,0-7.51,4.19-8,16.9,0,7.41,1.48,8.81,1.41,11.09a2.68,2.68,0,0,1-2.78,2.51,2.7,2.7,0,0,1-2.93-2.61c0-2.4,1.37-2.79,1.63-10A12.69,12.69,0,0,0,17,8.54c2,6.32,0,11.29-3.88,14.1a7.91,7.91,0,0,0-1.15-8.85A10.72,10.72,0,0,1,6.77,24.36h0L1.4,27.48C.51,28,0,28.66,0,29.28s.51,1.28,1.41,1.79l16.08,9.28a8.6,8.6,0,0,0,4.17,1,8.62,8.62,0,0,0,4.2-1l14.27-6.82L27,42.24a9.5,9.5,0,0,0-4.2,7.27L22.7,67.93a2.7,2.7,0,0,0,.58,1.91,1.24,1.24,0,0,0,.93.36,3.23,3.23,0,0,0,1.56-.5L41.7,60.45a9.5,9.5,0,0,0,4.2-7.27L46,34.75s0-.09,0-.14Zm-16.45,28a2.88,2.88,0,0,1,0-5.71,2.88,2.88,0,0,1,0,5.71Zm4.84-9.13a2.88,2.88,0,0,1,0-5.71,2.88,2.88,0,0,1,0,5.71Zm4.83-9.12a2.88,2.88,0,1,1,2.52-2.86A2.7,2.7,0,0,1,39.18,44.34Z"/><ellipse class="cls-5" cx="6.23" cy="41.79" rx="2.52" ry="2.86"/><ellipse class="cls-6" cx="15.1" cy="56.7" rx="2.52" ry="2.86"/><path class="cls-7" d="M46,34.61c0-3.57-.57-5-4.1-7.07l-.06,0h0l-.14-.08C32.32,22,23.66,15.84,31,0c0,0-7.51,4.19-8,16.9,0,7.41,1.48,8.81,1.41,11.09a2.68,2.68,0,0,1-2.78,2.51,2.7,2.7,0,0,1-2.93-2.61c0-2.4,1.37-2.79,1.63-10A12.69,12.69,0,0,0,17,8.54c2,6.32,0,11.29-3.88,14.1a7.91,7.91,0,0,0-1.15-8.85A10.72,10.72,0,0,1,6.77,24.36h0L1.4,27.48C.51,28,0,28.66,0,29.28s.51,1.28,1.41,1.79l16.08,9.28a8.6,8.6,0,0,0,4.17,1,8.62,8.62,0,0,0,4.2-1l14.27-6.82L27,42.24a9.5,9.5,0,0,0-4.2,7.27L22.7,67.93a2.7,2.7,0,0,0,.58,1.91,1.24,1.24,0,0,0,.93.36,3.23,3.23,0,0,0,1.56-.5L41.7,60.45a9.5,9.5,0,0,0,4.2-7.27L46,34.75s0-.09,0-.14Zm-16.45,28a2.88,2.88,0,0,1,0-5.71,2.88,2.88,0,0,1,0,5.71Zm4.84-9.13a2.88,2.88,0,0,1,0-5.71,2.88,2.88,0,0,1,0,5.71Zm4.83-9.12a2.88,2.88,0,1,1,2.52-2.86A2.7,2.7,0,0,1,39.18,44.34Z"/></svg>